<svg xmlns="http://www.w3.org/2000/svg" width="1280" height="620" viewBox="0 0 1280 620"><rect width="100%" height="100%" fill="#ffffff"/><style>text{font-family:Arial,sans-serif;fill:#18212b}.title{font-size:24px;font-weight:700}.subtitle{font-size:13px;fill:#59636e}.axis{stroke:#aab3bd;stroke-width:1}.grid{stroke:#e6e9ed;stroke-width:1}.label{font-size:12px}.value{font-size:11px}</style><text class="title" x="50" y="38">Динамика закупок по месяцам</text><text class="subtitle" x="50" y="60">Сумма приведена к собственной шкале, количество — к собственной</text><line class="grid" x1="80" y1="80.0" x2="1200" y2="80.0"/><line class="grid" x1="80" y1="164.0" x2="1200" y2="164.0"/><line class="grid" x1="80" y1="248.0" x2="1200" y2="248.0"/><line class="grid" x1="80" y1="332.0" x2="1200" y2="332.0"/><line class="grid" x1="80" y1="416.0" x2="1200" y2="416.0"/><line class="grid" x1="80" y1="500.0" x2="1200" y2="500.0"/><polyline points="80.0,462.9 128.7,368.0 177.4,419.6 226.1,453.2 274.8,381.5 323.5,466.0 372.2,407.1 420.9,301.8 469.6,367.6 518.3,234.3 567.0,332.3 615.7,420.5 664.3,212.0 713.0,80.0 761.7,303.2 810.4,174.2 859.1,439.8 907.8,426.7 956.5,393.7 1005.2,94.1 1053.9,147.0 1102.6,99.4 1151.3,387.6 1200.0,284.3" fill="none" stroke="#16a34a" stroke-width="4"/><polyline points="80.0,474.5 128.7,449.0 177.4,451.3 226.1,444.3 274.8,449.0 323.5,460.6 372.2,455.9 420.9,435.0 469.6,430.4 518.3,411.8 567.0,386.3 615.7,397.9 664.3,430.4 713.0,358.5 761.7,323.6 810.4,367.7 859.1,437.3 907.8,356.1 956.5,305.1 1005.2,230.8 1053.9,254.0 1102.6,105.5 1151.3,80.0 1200.0,121.8" fill="none" stroke="#2563eb" stroke-width="4"/><text class="label" x="80.0" y="530" text-anchor="end" transform="rotate(-55 80.0 530)">2024-01</text><text class="label" x="128.7" y="530" text-anchor="end" transform="rotate(-55 128.7 530)">2024-02</text><text class="label" x="177.4" y="530" text-anchor="end" transform="rotate(-55 177.4 530)">2024-03</text><text class="label" x="226.1" y="530" text-anchor="end" transform="rotate(-55 226.1 530)">2024-04</text><text class="label" x="274.8" y="530" text-anchor="end" transform="rotate(-55 274.8 530)">2024-05</text><text class="label" x="323.5" y="530" text-anchor="end" transform="rotate(-55 323.5 530)">2024-06</text><text class="label" x="372.2" y="530" text-anchor="end" transform="rotate(-55 372.2 530)">2024-07</text><text class="label" x="420.9" y="530" text-anchor="end" transform="rotate(-55 420.9 530)">2024-08</text><text class="label" x="469.6" y="530" text-anchor="end" transform="rotate(-55 469.6 530)">2024-09</text><text class="label" x="518.3" y="530" text-anchor="end" transform="rotate(-55 518.3 530)">2024-10</text><text class="label" x="567.0" y="530" text-anchor="end" transform="rotate(-55 567.0 530)">2024-11</text><text class="label" x="615.7" y="530" text-anchor="end" transform="rotate(-55 615.7 530)">2024-12</text><text class="label" x="664.3" y="530" text-anchor="end" transform="rotate(-55 664.3 530)">2025-01</text><text class="label" x="713.0" y="530" text-anchor="end" transform="rotate(-55 713.0 530)">2025-02</text><text class="label" x="761.7" y="530" text-anchor="end" transform="rotate(-55 761.7 530)">2025-03</text><text class="label" x="810.4" y="530" text-anchor="end" transform="rotate(-55 810.4 530)">2025-04</text><text class="label" x="859.1" y="530" text-anchor="end" transform="rotate(-55 859.1 530)">2025-05</text><text class="label" x="907.8" y="530" text-anchor="end" transform="rotate(-55 907.8 530)">2025-06</text><text class="label" x="956.5" y="530" text-anchor="end" transform="rotate(-55 956.5 530)">2025-07</text><text class="label" x="1005.2" y="530" text-anchor="end" transform="rotate(-55 1005.2 530)">2025-08</text><text class="label" x="1053.9" y="530" text-anchor="end" transform="rotate(-55 1053.9 530)">2025-09</text><text class="label" x="1102.6" y="530" text-anchor="end" transform="rotate(-55 1102.6 530)">2025-10</text><text class="label" x="1151.3" y="530" text-anchor="end" transform="rotate(-55 1151.3 530)">2025-11</text><text class="label" x="1200.0" y="530" text-anchor="end" transform="rotate(-55 1200.0 530)">2025-12</text><text x="930" y="38" fill="#16a34a">Сумма, млн руб.</text><text x="1080" y="38" fill="#2563eb">Количество</text></svg>