<svg xmlns="http://www.w3.org/2000/svg" width="1280" height="620" viewBox="0 0 1280 620"><rect width="100%" height="100%" fill="#ffffff"/><style>text{font-family:Arial,DejaVu Sans,sans-serif;fill:#18212b}.title{font-size:24px;font-weight:700}.subtitle{font-size:14px;fill:#59636e}.axis{stroke:#9aa4af;stroke-width:1}.grid{stroke:#e6e9ed;stroke-width:1}.label{font-size:12px}.small{font-size:11px}</style><text class="title" x="40" y="40">Динамика закупок по месяцам</text><text class="subtitle" x="40" y="64">Сумма и количество показаны на собственных шкалах</text><line class="grid" x1="85" y1="85.0" x2="1185" y2="85.0"/><line class="grid" x1="85" y1="166.0" x2="1185" y2="166.0"/><line class="grid" x1="85" y1="247.0" x2="1185" y2="247.0"/><line class="grid" x1="85" y1="328.0" x2="1185" y2="328.0"/><line class="grid" x1="85" y1="409.0" x2="1185" y2="409.0"/><line class="grid" x1="85" y1="490.0" x2="1185" y2="490.0"/><polyline points="85.0,454.2 132.8,362.8 180.7,412.5 228.5,444.9 276.3,375.8 324.1,457.2 372.0,400.4 419.8,298.8 467.6,362.4 515.4,233.8 563.3,328.3 611.1,413.3 658.9,212.3 706.7,85.0 754.6,300.2 802.4,175.9 850.2,431.9 898.0,419.3 945.9,387.5 993.7,98.6 1041.5,149.6 1089.3,103.8 1137.2,381.6 1185.0,282.0" fill="none" stroke="#159947" stroke-width="4"/><polyline points="85.0,465.4 132.8,440.8 180.7,443.0 228.5,436.3 276.3,440.8 324.1,452.0 372.0,447.5 419.8,427.3 467.6,422.9 515.4,405.0 563.3,380.4 611.1,391.5 658.9,422.9 706.7,353.5 754.6,319.9 802.4,362.5 850.2,429.6 898.0,351.3 945.9,302.0 993.7,230.4 1041.5,252.8 1089.3,109.6 1137.2,85.0 1185.0,125.3" fill="none" stroke="#2563eb" stroke-width="4"/><circle cx="85.0" cy="454.2" r="4" fill="#159947"/><circle cx="132.8" cy="362.8" r="4" fill="#159947"/><circle cx="180.7" cy="412.5" r="4" fill="#159947"/><circle cx="228.5" cy="444.9" r="4" fill="#159947"/><circle cx="276.3" cy="375.8" r="4" fill="#159947"/><circle cx="324.1" cy="457.2" r="4" fill="#159947"/><circle cx="372.0" cy="400.4" r="4" fill="#159947"/><circle cx="419.8" cy="298.8" r="4" fill="#159947"/><circle cx="467.6" cy="362.4" r="4" fill="#159947"/><circle cx="515.4" cy="233.8" r="4" fill="#159947"/><circle cx="563.3" cy="328.3" r="4" fill="#159947"/><circle cx="611.1" cy="413.3" r="4" fill="#159947"/><circle cx="658.9" cy="212.3" r="4" fill="#159947"/><circle cx="706.7" cy="85.0" r="4" fill="#159947"/><circle cx="754.6" cy="300.2" r="4" fill="#159947"/><circle cx="802.4" cy="175.9" r="4" fill="#159947"/><circle cx="850.2" cy="431.9" r="4" fill="#159947"/><circle cx="898.0" cy="419.3" r="4" fill="#159947"/><circle cx="945.9" cy="387.5" r="4" fill="#159947"/><circle cx="993.7" cy="98.6" r="4" fill="#159947"/><circle cx="1041.5" cy="149.6" r="4" fill="#159947"/><circle cx="1089.3" cy="103.8" r="4" fill="#159947"/><circle cx="1137.2" cy="381.6" r="4" fill="#159947"/><circle cx="1185.0" cy="282.0" r="4" fill="#159947"/><circle cx="85.0" cy="465.4" r="4" fill="#2563eb"/><circle cx="132.8" cy="440.8" r="4" fill="#2563eb"/><circle cx="180.7" cy="443.0" r="4" fill="#2563eb"/><circle cx="228.5" cy="436.3" r="4" fill="#2563eb"/><circle cx="276.3" cy="440.8" r="4" fill="#2563eb"/><circle cx="324.1" cy="452.0" r="4" fill="#2563eb"/><circle cx="372.0" cy="447.5" r="4" fill="#2563eb"/><circle cx="419.8" cy="427.3" r="4" fill="#2563eb"/><circle cx="467.6" cy="422.9" r="4" fill="#2563eb"/><circle cx="515.4" cy="405.0" r="4" fill="#2563eb"/><circle cx="563.3" cy="380.4" r="4" fill="#2563eb"/><circle cx="611.1" cy="391.5" r="4" fill="#2563eb"/><circle cx="658.9" cy="422.9" r="4" fill="#2563eb"/><circle cx="706.7" cy="353.5" r="4" fill="#2563eb"/><circle cx="754.6" cy="319.9" r="4" fill="#2563eb"/><circle cx="802.4" cy="362.5" r="4" fill="#2563eb"/><circle cx="850.2" cy="429.6" r="4" fill="#2563eb"/><circle cx="898.0" cy="351.3" r="4" fill="#2563eb"/><circle cx="945.9" cy="302.0" r="4" fill="#2563eb"/><circle cx="993.7" cy="230.4" r="4" fill="#2563eb"/><circle cx="1041.5" cy="252.8" r="4" fill="#2563eb"/><circle cx="1089.3" cy="109.6" r="4" fill="#2563eb"/><circle cx="1137.2" cy="85.0" r="4" fill="#2563eb"/><circle cx="1185.0" cy="125.3" r="4" fill="#2563eb"/><text class="label" x="85.0" y="535" text-anchor="end" transform="rotate(-55 85.0 535)">2024-01</text><text class="label" x="132.8" y="535" text-anchor="end" transform="rotate(-55 132.8 535)">2024-02</text><text class="label" x="180.7" y="535" text-anchor="end" transform="rotate(-55 180.7 535)">2024-03</text><text class="label" x="228.5" y="535" text-anchor="end" transform="rotate(-55 228.5 535)">2024-04</text><text class="label" x="276.3" y="535" text-anchor="end" transform="rotate(-55 276.3 535)">2024-05</text><text class="label" x="324.1" y="535" text-anchor="end" transform="rotate(-55 324.1 535)">2024-06</text><text class="label" x="372.0" y="535" text-anchor="end" transform="rotate(-55 372.0 535)">2024-07</text><text class="label" x="419.8" y="535" text-anchor="end" transform="rotate(-55 419.8 535)">2024-08</text><text class="label" x="467.6" y="535" text-anchor="end" transform="rotate(-55 467.6 535)">2024-09</text><text class="label" x="515.4" y="535" text-anchor="end" transform="rotate(-55 515.4 535)">2024-10</text><text class="label" x="563.3" y="535" text-anchor="end" transform="rotate(-55 563.3 535)">2024-11</text><text class="label" x="611.1" y="535" text-anchor="end" transform="rotate(-55 611.1 535)">2024-12</text><text class="label" x="658.9" y="535" text-anchor="end" transform="rotate(-55 658.9 535)">2025-01</text><text class="label" x="706.7" y="535" text-anchor="end" transform="rotate(-55 706.7 535)">2025-02</text><text class="label" x="754.6" y="535" text-anchor="end" transform="rotate(-55 754.6 535)">2025-03</text><text class="label" x="802.4" y="535" text-anchor="end" transform="rotate(-55 802.4 535)">2025-04</text><text class="label" x="850.2" y="535" text-anchor="end" transform="rotate(-55 850.2 535)">2025-05</text><text class="label" x="898.0" y="535" text-anchor="end" transform="rotate(-55 898.0 535)">2025-06</text><text class="label" x="945.9" y="535" text-anchor="end" transform="rotate(-55 945.9 535)">2025-07</text><text class="label" x="993.7" y="535" text-anchor="end" transform="rotate(-55 993.7 535)">2025-08</text><text class="label" x="1041.5" y="535" text-anchor="end" transform="rotate(-55 1041.5 535)">2025-09</text><text class="label" x="1089.3" y="535" text-anchor="end" transform="rotate(-55 1089.3 535)">2025-10</text><text class="label" x="1137.2" y="535" text-anchor="end" transform="rotate(-55 1137.2 535)">2025-11</text><text class="label" x="1185.0" y="535" text-anchor="end" transform="rotate(-55 1185.0 535)">2025-12</text><text x="900" y="40" fill="#159947">Сумма, млн руб.</text><text x="1060" y="40" fill="#2563eb">Количество</text></svg>