<svg xmlns="http://www.w3.org/2000/svg" width="1250" height="620" viewBox="0 0 1250 620"><rect width="100%" height="100%" fill="#ffffff"/><style>text{font-family:Arial,sans-serif;fill:#18212b}.title{font-size:24px;font-weight:700}.subtitle{font-size:13px;fill:#59636e}.axis{stroke:#aab3bd;stroke-width:1}.grid{stroke:#e6e9ed;stroke-width:1}.label{font-size:12px}.value{font-size:11px}</style><text class="title" x="50" y="38">Структура закупок по направлениям</text><text class="subtitle" x="50" y="60">Количество процедур по словарной классификации предмета закупки</text><text x="1010" y="38" fill="#2563eb">2024</text><text x="1080" y="38" fill="#16a34a">2025</text><rect x="98.0" y="417.2" width="52" height="92.8" fill="#2563eb"/><rect x="156.0" y="172.8" width="52" height="337.2" fill="#16a34a"/><text class="value" x="124.0" y="410.2" text-anchor="middle">199</text><text class="value" x="182.0" y="165.8" text-anchor="middle">723</text><text class="label" x="153.0" y="535" text-anchor="end" transform="rotate(-35 153.0 535)">other</text><rect x="252.3" y="481.6" width="52" height="28.4" fill="#2563eb"/><rect x="310.3" y="440.5" width="52" height="69.5" fill="#16a34a"/><text class="value" x="278.3" y="474.6" text-anchor="middle">61</text><text class="value" x="336.3" y="433.5" text-anchor="middle">149</text><text class="label" x="307.3" y="535" text-anchor="end" transform="rotate(-35 307.3 535)">it_and_telecom</text><rect x="406.6" y="503.9" width="52" height="6.1" fill="#2563eb"/><rect x="464.6" y="454.5" width="52" height="55.5" fill="#16a34a"/><text class="value" x="432.6" y="496.9" text-anchor="middle">13</text><text class="value" x="490.6" y="447.5" text-anchor="middle">119</text><text class="label" x="461.6" y="535" text-anchor="end" transform="rotate(-35 461.6 535)">logistics_and_facilities</text><rect x="560.9" y="495.1" width="52" height="14.9" fill="#2563eb"/><rect x="618.9" y="470.8" width="52" height="39.2" fill="#16a34a"/><text class="value" x="586.9" y="488.1" text-anchor="middle">32</text><text class="value" x="644.9" y="463.8" text-anchor="middle">84</text><text class="label" x="615.9" y="535" text-anchor="end" transform="rotate(-35 615.9 535)">construction_and_repair</text><rect x="715.1" y="502.5" width="52" height="7.5" fill="#2563eb"/><rect x="773.1" y="487.1" width="52" height="22.9" fill="#16a34a"/><text class="value" x="741.1" y="495.5" text-anchor="middle">16</text><text class="value" x="799.1" y="480.1" text-anchor="middle">49</text><text class="label" x="770.1" y="535" text-anchor="end" transform="rotate(-35 770.1 535)">professional_services</text><rect x="869.4" y="508.1" width="52" height="1.9" fill="#2563eb"/><rect x="927.4" y="507.2" width="52" height="2.8" fill="#16a34a"/><text class="value" x="895.4" y="501.1" text-anchor="middle">4</text><text class="value" x="953.4" y="500.2" text-anchor="middle">6</text><text class="label" x="924.4" y="535" text-anchor="end" transform="rotate(-35 924.4 535)">audit_and_assurance</text><rect x="1023.7" y="510.0" width="52" height="0.0" fill="#2563eb"/><rect x="1081.7" y="508.6" width="52" height="1.4" fill="#16a34a"/><text class="value" x="1049.7" y="503.0" text-anchor="middle">0</text><text class="value" x="1107.7" y="501.6" text-anchor="middle">3</text><text class="label" x="1078.7" y="535" text-anchor="end" transform="rotate(-35 1078.7 535)">insurance</text></svg>