<svg xmlns="http://www.w3.org/2000/svg" width="1280" height="620" viewBox="0 0 1280 620"><rect width="100%" height="100%" fill="#ffffff"/><style>text{font-family:Arial,DejaVu Sans,sans-serif;fill:#18212b}.title{font-size:24px;font-weight:700}.subtitle{font-size:14px;fill:#59636e}.axis{stroke:#9aa4af;stroke-width:1}.grid{stroke:#e6e9ed;stroke-width:1}.label{font-size:12px}.small{font-size:11px}</style><text class="title" x="40" y="40">Структура закупок по направлениям</text><text class="subtitle" x="40" y="64">Количество процедур в 2024 и 2025 годах</text><text x="980" y="40" fill="#2563eb">2024</text><text x="1060" y="40" fill="#16a34a">2025</text><rect x="100.0" y="373.5" width="45" height="111.5" fill="#2563eb"/><rect x="152.0" y="80.0" width="45" height="405.0" fill="#16a34a"/><text class="small" x="122.0" y="367.5" text-anchor="middle">199</text><text class="small" x="174.0" y="74.0" text-anchor="middle">723</text><text class="label" x="150.0" y="535" text-anchor="end" transform="rotate(-35 150.0 535)">other</text><rect x="257.1" y="450.8" width="45" height="34.2" fill="#2563eb"/><rect x="309.1" y="401.5" width="45" height="83.5" fill="#16a34a"/><text class="small" x="279.1" y="444.8" text-anchor="middle">61</text><text class="small" x="331.1" y="395.5" text-anchor="middle">149</text><text class="label" x="307.1" y="535" text-anchor="end" transform="rotate(-35 307.1 535)">it_and_telecom</text><rect x="414.3" y="477.7" width="45" height="7.3" fill="#2563eb"/><rect x="466.3" y="418.3" width="45" height="66.7" fill="#16a34a"/><text class="small" x="436.3" y="471.7" text-anchor="middle">13</text><text class="small" x="488.3" y="412.3" text-anchor="middle">119</text><text class="label" x="464.3" y="535" text-anchor="end" transform="rotate(-35 464.3 535)">logistics_and_facilities</text><rect x="571.4" y="467.1" width="45" height="17.9" fill="#2563eb"/><rect x="623.4" y="437.9" width="45" height="47.1" fill="#16a34a"/><text class="small" x="593.4" y="461.1" text-anchor="middle">32</text><text class="small" x="645.4" y="431.9" text-anchor="middle">84</text><text class="label" x="621.4" y="535" text-anchor="end" transform="rotate(-35 621.4 535)">construction_and_repair</text><rect x="728.6" y="476.0" width="45" height="9.0" fill="#2563eb"/><rect x="780.6" y="457.6" width="45" height="27.4" fill="#16a34a"/><text class="small" x="750.6" y="470.0" text-anchor="middle">16</text><text class="small" x="802.6" y="451.6" text-anchor="middle">49</text><text class="label" x="778.6" y="535" text-anchor="end" transform="rotate(-35 778.6 535)">professional_services</text><rect x="885.7" y="482.8" width="45" height="2.2" fill="#2563eb"/><rect x="937.7" y="481.6" width="45" height="3.4" fill="#16a34a"/><text class="small" x="907.7" y="476.8" text-anchor="middle">4</text><text class="small" x="959.7" y="475.6" text-anchor="middle">6</text><text class="label" x="935.7" y="535" text-anchor="end" transform="rotate(-35 935.7 535)">audit_and_assurance</text><rect x="1042.9" y="485.0" width="45" height="0.0" fill="#2563eb"/><rect x="1094.9" y="483.3" width="45" height="1.7" fill="#16a34a"/><text class="small" x="1064.9" y="479.0" text-anchor="middle">0</text><text class="small" x="1116.9" y="477.3" text-anchor="middle">3</text><text class="label" x="1092.9" y="535" text-anchor="end" transform="rotate(-35 1092.9 535)">insurance</text></svg>