<svg xmlns="http://www.w3.org/2000/svg" width="1320" height="780" viewBox="0 0 1320 780"><rect width="100%" height="100%" fill="#ffffff"/><style>text{font-family:Arial,DejaVu Sans,sans-serif;fill:#18212b}.title{font-size:24px;font-weight:700}.subtitle{font-size:14px;fill:#59636e}.axis{stroke:#9aa4af;stroke-width:1}.grid{stroke:#e6e9ed;stroke-width:1}.label{font-size:12px}.small{font-size:11px}</style><text class="title" x="40" y="40">Топ-20 самых дорогих лотов</text><text class="subtitle" x="40" y="62">Указанная сумма, млн руб.</text><text class="label" x="20" y="85">1. SBR028-2502050031.1</text><rect x="240" y="70" width="760.0" height="21" fill="#7c3aed"/><text class="small" x="1010.0" y="85">296.1 млн</text><text class="label" x="20" y="118">2. SBR028-2501210072.1</text><rect x="240" y="103" width="604.0" height="21" fill="#7c3aed"/><text class="small" x="854.0" y="118">235.3 млн</text><text class="label" x="20" y="151">3. SBR028-2509160031.1</text><rect x="240" y="136" width="477.5" height="21" fill="#7c3aed"/><text class="small" x="727.5" y="151">186.0 млн</text><text class="label" x="20" y="184">4. SBR028-2410010034.1</text><rect x="240" y="169" width="411.9" height="21" fill="#7c3aed"/><text class="small" x="661.9" y="184">160.5 млн</text><text class="label" x="20" y="217">5. SBR028-2508210056.1</text><rect x="240" y="202" width="398.1" height="21" fill="#7c3aed"/><text class="small" x="648.1" y="217">155.1 млн</text><text class="label" x="20" y="250">6. SBR028-2504250009.1</text><rect x="240" y="235" width="314.1" height="21" fill="#7c3aed"/><text class="small" x="564.1" y="250">122.4 млн</text><text class="label" x="20" y="283">7. SBR028-2411020013.1</text><rect x="240" y="268" width="259.2" height="21" fill="#7c3aed"/><text class="small" x="509.2" y="283">101.0 млн</text><text class="label" x="20" y="316">8. SBR028-2510140031.1</text><rect x="240" y="301" width="256.7" height="21" fill="#7c3aed"/><text class="small" x="506.7" y="316">100.0 млн</text><text class="label" x="20" y="349">9. 8012904</text><rect x="240" y="334" width="166.8" height="21" fill="#7c3aed"/><text class="small" x="416.8" y="349">65.0 млн</text><text class="label" x="20" y="382">10. SBR028-2510100053.1</text><rect x="240" y="367" width="145.1" height="21" fill="#7c3aed"/><text class="small" x="395.1" y="382">56.5 млн</text><text class="label" x="20" y="415">11. SBR028-2408190016.1</text><rect x="240" y="400" width="128.3" height="21" fill="#7c3aed"/><text class="small" x="378.3" y="415">50.0 млн</text><text class="label" x="20" y="448">12. SBR028-2512080027.1</text><rect x="240" y="433" width="116.1" height="21" fill="#7c3aed"/><text class="small" x="366.1" y="448">45.2 млн</text><text class="label" x="20" y="481">13. SBR028-2504180037.1</text><rect x="240" y="466" width="111.4" height="21" fill="#7c3aed"/><text class="small" x="361.4" y="481">43.4 млн</text><text class="label" x="20" y="514">14. SBR028-2512010036.1</text><rect x="240" y="499" width="97.7" height="21" fill="#7c3aed"/><text class="small" x="347.7" y="514">38.1 млн</text><text class="label" x="20" y="547">15. SBR028-2503270015.1</text><rect x="240" y="532" width="79.6" height="21" fill="#7c3aed"/><text class="small" x="329.6" y="547">31.0 млн</text><text class="label" x="20" y="580">16. SBR028-2503070023.1</text><rect x="240" y="565" width="79.6" height="21" fill="#7c3aed"/><text class="small" x="329.6" y="580">31.0 млн</text><text class="label" x="20" y="613">17. SBR028-2408230031.1</text><rect x="240" y="598" width="77.0" height="21" fill="#7c3aed"/><text class="small" x="327.0" y="613">30.0 млн</text><text class="label" x="20" y="646">18. SBR028-2405020024.1</text><rect x="240" y="631" width="77.0" height="21" fill="#7c3aed"/><text class="small" x="327.0" y="646">30.0 млн</text><text class="label" x="20" y="679">19. SBR028-2410090024.1</text><rect x="240" y="664" width="77.0" height="21" fill="#7c3aed"/><text class="small" x="327.0" y="679">30.0 млн</text><text class="label" x="20" y="712">20. SBR028-2409300079.1</text><rect x="240" y="697" width="77.0" height="21" fill="#7c3aed"/><text class="small" x="327.0" y="712">30.0 млн</text></svg>