<svg xmlns="http://www.w3.org/2000/svg" width="1300" height="760" viewBox="0 0 1300 760"><rect width="100%" height="100%" fill="#ffffff"/><style>text{font-family:Arial,sans-serif;fill:#18212b}.title{font-size:24px;font-weight:700}.subtitle{font-size:13px;fill:#59636e}.axis{stroke:#aab3bd;stroke-width:1}.grid{stroke:#e6e9ed;stroke-width:1}.label{font-size:12px}.value{font-size:11px}</style><text class="title" x="30" y="35">Топ-20 самых дорогих закупок</text><text class="subtitle" x="30" y="55">Указанная начальная сумма, млн руб.</text><text class="label" x="15" y="80">1. SBR028-2502050031.1</text><rect x="215" y="65" width="730.0" height="20" fill="#7c3aed"/><text class="value" x="955.0" y="80">296.1</text><text class="label" x="15" y="113">2. SBR028-2501210072.1</text><rect x="215" y="98" width="580.2" height="20" fill="#7c3aed"/><text class="value" x="805.2" y="113">235.3</text><text class="label" x="15" y="146">3. SBR028-2509160031.1</text><rect x="215" y="131" width="458.6" height="20" fill="#7c3aed"/><text class="value" x="683.6" y="146">186.0</text><text class="label" x="15" y="179">4. SBR028-2410010034.1</text><rect x="215" y="164" width="395.7" height="20" fill="#7c3aed"/><text class="value" x="620.7" y="179">160.5</text><text class="label" x="15" y="212">5. SBR028-2508210056.1</text><rect x="215" y="197" width="382.4" height="20" fill="#7c3aed"/><text class="value" x="607.4" y="212">155.1</text><text class="label" x="15" y="245">6. SBR028-2504250009.1</text><rect x="215" y="230" width="301.7" height="20" fill="#7c3aed"/><text class="value" x="526.7" y="245">122.4</text><text class="label" x="15" y="278">7. SBR028-2411020013.1</text><rect x="215" y="263" width="249.0" height="20" fill="#7c3aed"/><text class="value" x="474.0" y="278">101.0</text><text class="label" x="15" y="311">8. SBR028-2510140031.1</text><rect x="215" y="296" width="246.5" height="20" fill="#7c3aed"/><text class="value" x="471.5" y="311">100.0</text><text class="label" x="15" y="344">9. 8012904</text><rect x="215" y="329" width="160.2" height="20" fill="#7c3aed"/><text class="value" x="385.2" y="344">65.0</text><text class="label" x="15" y="377">10. SBR028-2510100053.1</text><rect x="215" y="362" width="139.4" height="20" fill="#7c3aed"/><text class="value" x="364.4" y="377">56.5</text><text class="label" x="15" y="410">11. SBR028-2408190016.1</text><rect x="215" y="395" width="123.3" height="20" fill="#7c3aed"/><text class="value" x="348.3" y="410">50.0</text><text class="label" x="15" y="443">12. SBR028-2512080027.1</text><rect x="215" y="428" width="111.5" height="20" fill="#7c3aed"/><text class="value" x="336.5" y="443">45.2</text><text class="label" x="15" y="476">13. SBR028-2504180037.1</text><rect x="215" y="461" width="107.0" height="20" fill="#7c3aed"/><text class="value" x="332.0" y="476">43.4</text><text class="label" x="15" y="509">14. SBR028-2512010036.1</text><rect x="215" y="494" width="93.9" height="20" fill="#7c3aed"/><text class="value" x="318.9" y="509">38.1</text><text class="label" x="15" y="542">15. SBR028-2503270015.1</text><rect x="215" y="527" width="76.4" height="20" fill="#7c3aed"/><text class="value" x="301.4" y="542">31.0</text><text class="label" x="15" y="575">16. SBR028-2503070023.1</text><rect x="215" y="560" width="76.4" height="20" fill="#7c3aed"/><text class="value" x="301.4" y="575">31.0</text><text class="label" x="15" y="608">17. SBR028-2408230031.1</text><rect x="215" y="593" width="74.0" height="20" fill="#7c3aed"/><text class="value" x="299.0" y="608">30.0</text><text class="label" x="15" y="641">18. SBR028-2405020024.1</text><rect x="215" y="626" width="74.0" height="20" fill="#7c3aed"/><text class="value" x="299.0" y="641">30.0</text><text class="label" x="15" y="674">19. SBR028-2410090024.1</text><rect x="215" y="659" width="73.9" height="20" fill="#7c3aed"/><text class="value" x="298.9" y="674">30.0</text><text class="label" x="15" y="707">20. SBR028-2409300079.1</text><rect x="215" y="692" width="73.9" height="20" fill="#7c3aed"/><text class="value" x="298.9" y="707">30.0</text></svg>