<svg xmlns="http://www.w3.org/2000/svg" width="850" height="570" viewBox="0 0 850 570"><rect width="100%" height="100%" fill="#ffffff"/><style>text{font-family:Arial,sans-serif;fill:#18212b}.title{font-size:24px;font-weight:700}.subtitle{font-size:13px;fill:#59636e}.axis{stroke:#aab3bd;stroke-width:1}.grid{stroke:#e6e9ed;stroke-width:1}.label{font-size:12px}.value{font-size:11px}</style><text class="title" x="35" y="35">Сумма IT-закупок и USD/RUB</text><text class="subtitle" x="35" y="58">Pearson r=-0.1039; permutation p=0.6501; n=24</text><line class="axis" x1="90" y1="470" x2="770" y2="470"/><line class="axis" x1="90" y1="80" x2="90" y2="470"/><circle cx="383.0" cy="130.3" r="6" fill="#dc2626" opacity="0.72"><title>2024-01: x=88.68, y=16.67</title></circle><circle cx="463.9" cy="134.1" r="6" fill="#dc2626" opacity="0.72"><title>2024-02: x=91.52, y=16.49</title></circle><circle cx="469.9" cy="129.3" r="6" fill="#dc2626" opacity="0.72"><title>2024-03: x=91.73, y=16.73</title></circle><circle cx="504.9" cy="148.4" r="6" fill="#dc2626" opacity="0.72"><title>2024-04: x=92.96, y=15.79</title></circle><circle cx="437.9" cy="173.5" r="6" fill="#dc2626" opacity="0.72"><title>2024-05: x=90.61, y=14.55</title></circle><circle cx="356.6" cy="128.0" r="6" fill="#dc2626" opacity="0.72"><title>2024-06: x=87.76, y=16.79</title></circle><circle cx="349.1" cy="111.8" r="6" fill="#dc2626" opacity="0.72"><title>2024-07: x=87.49, y=17.59</title></circle><circle cx="396.6" cy="112.1" r="6" fill="#dc2626" opacity="0.72"><title>2024-08: x=89.16, y=17.57</title></circle><circle cx="455.8" cy="128.6" r="6" fill="#dc2626" opacity="0.72"><title>2024-09: x=91.23, y=16.76</title></circle><circle cx="596.2" cy="470.0" r="6" fill="#dc2626" opacity="0.72"><title>2024-10: x=96.16, y=0.00</title></circle><circle cx="725.2" cy="146.4" r="6" fill="#dc2626" opacity="0.72"><title>2024-11: x=100.69, y=15.89</title></circle><circle cx="770.0" cy="148.5" r="6" fill="#dc2626" opacity="0.72"><title>2024-12: x=102.26, y=15.78</title></circle><circle cx="717.3" cy="133.4" r="6" fill="#dc2626" opacity="0.72"><title>2025-01: x=100.41, y=16.52</title></circle><circle cx="498.7" cy="116.4" r="6" fill="#dc2626" opacity="0.72"><title>2025-02: x=92.74, y=17.36</title></circle><circle cx="307.2" cy="117.6" r="6" fill="#dc2626" opacity="0.72"><title>2025-03: x=86.02, y=17.30</title></circle><circle cx="233.2" cy="111.7" r="6" fill="#dc2626" opacity="0.72"><title>2025-04: x=83.43, y=17.59</title></circle><circle cx="141.4" cy="470.0" r="6" fill="#dc2626" opacity="0.72"><title>2025-05: x=80.20, y=0.00</title></circle><circle cx="97.6" cy="147.3" r="6" fill="#dc2626" opacity="0.72"><title>2025-06: x=78.67, y=15.84</title></circle><circle cx="100.6" cy="107.3" r="6" fill="#dc2626" opacity="0.72"><title>2025-07: x=78.77, y=17.80</title></circle><circle cx="139.2" cy="84.6" r="6" fill="#dc2626" opacity="0.72"><title>2025-08: x=80.13, y=18.92</title></circle><circle cx="220.2" cy="80.0" r="6" fill="#dc2626" opacity="0.72"><title>2025-09: x=82.97, y=19.14</title></circle><circle cx="161.8" cy="91.6" r="6" fill="#dc2626" opacity="0.72"><title>2025-10: x=80.92, y=18.57</title></circle><circle cx="145.4" cy="128.5" r="6" fill="#dc2626" opacity="0.72"><title>2025-11: x=80.34, y=16.76</title></circle><circle cx="90.0" cy="135.5" r="6" fill="#dc2626" opacity="0.72"><title>2025-12: x=78.40, y=16.42</title></circle><text class="label" x="430.0" y="535" text-anchor="middle">Средний USD/RUB</text><text class="label" x="20" y="275.0" text-anchor="middle" transform="rotate(-90 20 275.0)">log(1 + сумма IT-закупок)</text></svg>