<svg xmlns="http://www.w3.org/2000/svg" width="900" height="580" viewBox="0 0 900 580"><rect width="100%" height="100%" fill="#ffffff"/><style>text{font-family:Arial,DejaVu Sans,sans-serif;fill:#18212b}.title{font-size:24px;font-weight:700}.subtitle{font-size:14px;fill:#59636e}.axis{stroke:#9aa4af;stroke-width:1}.grid{stroke:#e6e9ed;stroke-width:1}.label{font-size:12px}.small{font-size:11px}</style><text class="title" x="35" y="40">IT-закупки и USD/RUB</text><text class="subtitle" x="35" y="64">Pearson r = -0.1039; p-value = 0.6501; n = 24</text><line class="axis" x1="90" y1="475" x2="810" y2="475"/><line class="axis" x1="90" y1="85" x2="90" y2="475"/><line class="grid" x1="90" y1="85.0" x2="810" y2="85.0"/><line class="grid" x1="90" y1="163.0" x2="810" y2="163.0"/><line class="grid" x1="90" y1="241.0" x2="810" y2="241.0"/><line class="grid" x1="90" y1="319.0" x2="810" y2="319.0"/><line class="grid" x1="90" y1="397.0" x2="810" y2="397.0"/><line class="grid" x1="90" y1="475.0" x2="810" y2="475.0"/><circle cx="400.2" cy="442.1" r="6" fill="#dc2626" opacity="0.75"><title>2024-01</title></circle><circle cx="485.8" cy="447.6" r="6" fill="#dc2626" opacity="0.75"><title>2024-02</title></circle><circle cx="492.3" cy="440.3" r="6" fill="#dc2626" opacity="0.75"><title>2024-03</title></circle><circle cx="529.3" cy="461.4" r="6" fill="#dc2626" opacity="0.75"><title>2024-04</title></circle><circle cx="458.3" cy="471.0" r="6" fill="#dc2626" opacity="0.75"><title>2024-05</title></circle><circle cx="372.3" cy="438.0" r="6" fill="#dc2626" opacity="0.75"><title>2024-06</title></circle><circle cx="364.3" cy="393.0" r="6" fill="#dc2626" opacity="0.75"><title>2024-07</title></circle><circle cx="414.7" cy="394.2" r="6" fill="#dc2626" opacity="0.75"><title>2024-08</title></circle><circle cx="477.3" cy="439.1" r="6" fill="#dc2626" opacity="0.75"><title>2024-09</title></circle><circle cx="625.9" cy="475.0" r="6" fill="#dc2626" opacity="0.75"><title>2024-10</title></circle><circle cx="762.6" cy="460.0" r="6" fill="#dc2626" opacity="0.75"><title>2024-11</title></circle><circle cx="810.0" cy="461.5" r="6" fill="#dc2626" opacity="0.75"><title>2024-12</title></circle><circle cx="754.2" cy="446.6" r="6" fill="#dc2626" opacity="0.75"><title>2025-01</title></circle><circle cx="522.8" cy="409.6" r="6" fill="#dc2626" opacity="0.75"><title>2025-02</title></circle><circle cx="320.0" cy="413.6" r="6" fill="#dc2626" opacity="0.75"><title>2025-03</title></circle><circle cx="241.6" cy="392.9" r="6" fill="#dc2626" opacity="0.75"><title>2025-04</title></circle><circle cx="144.4" cy="475.0" r="6" fill="#dc2626" opacity="0.75"><title>2025-05</title></circle><circle cx="98.0" cy="460.7" r="6" fill="#dc2626" opacity="0.75"><title>2025-06</title></circle><circle cx="101.2" cy="373.1" r="6" fill="#dc2626" opacity="0.75"><title>2025-07</title></circle><circle cx="142.1" cy="163.1" r="6" fill="#dc2626" opacity="0.75"><title>2025-08</title></circle><circle cx="227.9" cy="85.0" r="6" fill="#dc2626" opacity="0.75"><title>2025-09</title></circle><circle cx="166.0" cy="254.4" r="6" fill="#dc2626" opacity="0.75"><title>2025-10</title></circle><circle cx="148.6" cy="438.9" r="6" fill="#dc2626" opacity="0.75"><title>2025-11</title></circle><circle cx="90.0" cy="449.4" r="6" fill="#dc2626" opacity="0.75"><title>2025-12</title></circle><text class="label" x="450.0" y="540" text-anchor="middle">Средний USD/RUB за месяц</text><text class="label" x="28" y="280.0" text-anchor="middle" transform="rotate(-90 28 280.0)">Сумма IT-закупок, млн руб.</text></svg>