<svg xmlns="http://www.w3.org/2000/svg" width="900" height="580" viewBox="0 0 900 580"><rect width="100%" height="100%" fill="#ffffff"/><style>text{font-family:Arial,DejaVu Sans,sans-serif;fill:#18212b}.title{font-size:24px;font-weight:700}.subtitle{font-size:14px;fill:#59636e}.axis{stroke:#9aa4af;stroke-width:1}.grid{stroke:#e6e9ed;stroke-width:1}.label{font-size:12px}.small{font-size:11px}</style><text class="title" x="35" y="40">Строительные закупки и ключевая ставка</text><text class="subtitle" x="35" y="64">Pearson r = 0.0134; p-value = 0.9510; n = 24</text><line class="axis" x1="90" y1="475" x2="810" y2="475"/><line class="axis" x1="90" y1="85" x2="90" y2="475"/><line class="grid" x1="90" y1="85.0" x2="810" y2="85.0"/><line class="grid" x1="90" y1="163.0" x2="810" y2="163.0"/><line class="grid" x1="90" y1="241.0" x2="810" y2="241.0"/><line class="grid" x1="90" y1="319.0" x2="810" y2="319.0"/><line class="grid" x1="90" y1="397.0" x2="810" y2="397.0"/><line class="grid" x1="90" y1="475.0" x2="810" y2="475.0"/><circle cx="90.0" cy="475.0" r="6" fill="#dc2626" opacity="0.75"><title>2024-01</title></circle><circle cx="90.0" cy="475.0" r="6" fill="#dc2626" opacity="0.75"><title>2024-02</title></circle><circle cx="90.0" cy="456.9" r="6" fill="#dc2626" opacity="0.75"><title>2024-03</title></circle><circle cx="90.0" cy="456.9" r="6" fill="#dc2626" opacity="0.75"><title>2024-04</title></circle><circle cx="90.0" cy="85.0" r="6" fill="#dc2626" opacity="0.75"><title>2024-05</title></circle><circle cx="90.0" cy="475.0" r="6" fill="#dc2626" opacity="0.75"><title>2024-06</title></circle><circle cx="127.6" cy="314.3" r="6" fill="#dc2626" opacity="0.75"><title>2024-07</title></circle><circle cx="378.0" cy="288.2" r="6" fill="#dc2626" opacity="0.75"><title>2024-08</title></circle><circle cx="453.4" cy="445.0" r="6" fill="#dc2626" opacity="0.75"><title>2024-09</title></circle><circle cx="572.1" cy="467.3" r="6" fill="#dc2626" opacity="0.75"><title>2024-10</title></circle><circle cx="810.0" cy="449.3" r="6" fill="#dc2626" opacity="0.75"><title>2024-11</title></circle><circle cx="810.0" cy="339.9" r="6" fill="#dc2626" opacity="0.75"><title>2024-12</title></circle><circle cx="810.0" cy="475.0" r="6" fill="#dc2626" opacity="0.75"><title>2025-01</title></circle><circle cx="810.0" cy="343.5" r="6" fill="#dc2626" opacity="0.75"><title>2025-02</title></circle><circle cx="810.0" cy="475.0" r="6" fill="#dc2626" opacity="0.75"><title>2025-03</title></circle><circle cx="810.0" cy="459.5" r="6" fill="#dc2626" opacity="0.75"><title>2025-04</title></circle><circle cx="810.0" cy="464.9" r="6" fill="#dc2626" opacity="0.75"><title>2025-05</title></circle><circle cx="702.0" cy="467.8" r="6" fill="#dc2626" opacity="0.75"><title>2025-06</title></circle><circle cx="615.9" cy="458.2" r="6" fill="#dc2626" opacity="0.75"><title>2025-07</title></circle><circle cx="378.0" cy="370.2" r="6" fill="#dc2626" opacity="0.75"><title>2025-08</title></circle><circle cx="299.4" cy="360.0" r="6" fill="#dc2626" opacity="0.75"><title>2025-09</title></circle><circle cx="218.3" cy="338.8" r="6" fill="#dc2626" opacity="0.75"><title>2025-10</title></circle><circle cx="162.0" cy="421.9" r="6" fill="#dc2626" opacity="0.75"><title>2025-11</title></circle><circle cx="139.1" cy="143.8" r="6" fill="#dc2626" opacity="0.75"><title>2025-12</title></circle><text class="label" x="450.0" y="540" text-anchor="middle">Средняя ключевая ставка, %</text><text class="label" x="28" y="280.0" text-anchor="middle" transform="rotate(-90 28 280.0)">Сумма строительных закупок, млн руб.</text></svg>