<svg xmlns="http://www.w3.org/2000/svg" width="850" height="570" viewBox="0 0 850 570"><rect width="100%" height="100%" fill="#ffffff"/><style>text{font-family:Arial,sans-serif;fill:#18212b}.title{font-size:24px;font-weight:700}.subtitle{font-size:13px;fill:#59636e}.axis{stroke:#aab3bd;stroke-width:1}.grid{stroke:#e6e9ed;stroke-width:1}.label{font-size:12px}.value{font-size:11px}</style><text class="title" x="35" y="35">Строительные закупки и ключевая ставка</text><text class="subtitle" x="35" y="58">Pearson r=0.0134; permutation p=0.9510; n=24</text><line class="axis" x1="90" y1="470" x2="770" y2="470"/><line class="axis" x1="90" y1="80" x2="90" y2="470"/><circle cx="90.0" cy="470.0" r="6" fill="#dc2626" opacity="0.72"><title>2024-01: x=16.00, y=0.00</title></circle><circle cx="90.0" cy="470.0" r="6" fill="#dc2626" opacity="0.72"><title>2024-02: x=16.00, y=0.00</title></circle><circle cx="90.0" cy="145.0" r="6" fill="#dc2626" opacity="0.72"><title>2024-03: x=16.00, y=15.33</title></circle><circle cx="90.0" cy="145.0" r="6" fill="#dc2626" opacity="0.72"><title>2024-04: x=16.00, y=15.33</title></circle><circle cx="90.0" cy="80.0" r="6" fill="#dc2626" opacity="0.72"><title>2024-05: x=16.00, y=18.40</title></circle><circle cx="90.0" cy="440.6" r="6" fill="#dc2626" opacity="0.72"><title>2024-06: x=16.00, y=1.39</title></circle><circle cx="125.5" cy="98.8" r="6" fill="#dc2626" opacity="0.72"><title>2024-07: x=16.26, y=17.51</title></circle><circle cx="362.0" cy="95.6" r="6" fill="#dc2626" opacity="0.72"><title>2024-08: x=18.00, y=17.67</title></circle><circle cx="433.2" cy="134.3" r="6" fill="#dc2626" opacity="0.72"><title>2024-09: x=18.52, y=15.84</title></circle><circle cx="545.3" cy="163.1" r="6" fill="#dc2626" opacity="0.72"><title>2024-10: x=19.35, y=14.48</title></circle><circle cx="770.0" cy="137.7" r="6" fill="#dc2626" opacity="0.72"><title>2024-11: x=21.00, y=15.68</title></circle><circle cx="770.0" cy="102.5" r="6" fill="#dc2626" opacity="0.72"><title>2024-12: x=21.00, y=17.34</title></circle><circle cx="770.0" cy="470.0" r="6" fill="#dc2626" opacity="0.72"><title>2025-01: x=21.00, y=0.00</title></circle><circle cx="770.0" cy="103.0" r="6" fill="#dc2626" opacity="0.72"><title>2025-02: x=21.00, y=17.31</title></circle><circle cx="770.0" cy="470.0" r="6" fill="#dc2626" opacity="0.72"><title>2025-03: x=21.00, y=0.00</title></circle><circle cx="770.0" cy="148.4" r="6" fill="#dc2626" opacity="0.72"><title>2025-04: x=21.00, y=15.17</title></circle><circle cx="770.0" cy="157.4" r="6" fill="#dc2626" opacity="0.72"><title>2025-05: x=21.00, y=14.75</title></circle><circle cx="668.0" cy="164.7" r="6" fill="#dc2626" opacity="0.72"><title>2025-06: x=20.25, y=14.40</title></circle><circle cx="586.7" cy="146.7" r="6" fill="#dc2626" opacity="0.72"><title>2025-07: x=19.65, y=15.26</title></circle><circle cx="362.0" cy="107.9" r="6" fill="#dc2626" opacity="0.72"><title>2025-08: x=18.00, y=17.09</title></circle><circle cx="287.8" cy="105.9" r="6" fill="#dc2626" opacity="0.72"><title>2025-09: x=17.45, y=17.18</title></circle><circle cx="211.2" cy="102.3" r="6" fill="#dc2626" opacity="0.72"><title>2025-10: x=16.89, y=17.35</title></circle><circle cx="158.0" cy="122.2" r="6" fill="#dc2626" opacity="0.72"><title>2025-11: x=16.50, y=16.41</title></circle><circle cx="136.4" cy="83.5" r="6" fill="#dc2626" opacity="0.72"><title>2025-12: x=16.34, y=18.24</title></circle><text class="label" x="430.0" y="535" text-anchor="middle">Средняя ключевая ставка, %</text><text class="label" x="20" y="275.0" text-anchor="middle" transform="rotate(-90 20 275.0)">log(1 + сумма строительных закупок)</text></svg>