<svg xmlns="http://www.w3.org/2000/svg" width="1000" height="580" viewBox="0 0 1000 580"><rect width="100%" height="100%" fill="#ffffff"/><style>text{font-family:Arial,sans-serif;fill:#18212b}.title{font-size:24px;font-weight:700}.subtitle{font-size:13px;fill:#59636e}.axis{stroke:#aab3bd;stroke-width:1}.grid{stroke:#e6e9ed;stroke-width:1}.label{font-size:12px}.value{font-size:11px}</style><text class="title" x="35" y="35">Распределение закупок по указанной сумме</text><text class="subtitle" x="35" y="58">Логарифмические диапазоны; нулевые и символические цены сохранены</text><rect x="70" y="292.8" width="82" height="177.2" fill="#0f766e"/><text class="value" x="111" y="282.8" text-anchor="middle">278</text><text class="label" x="111" y="495" text-anchor="end" transform="rotate(-35 111 495)">Нет суммы</text><rect x="200" y="80.0" width="82" height="390.0" fill="#0f766e"/><text class="value" x="241" y="70.0" text-anchor="middle">612</text><text class="label" x="241" y="495" text-anchor="end" transform="rotate(-35 241 495)">до 10 тыс.</text><rect x="330" y="415.2" width="82" height="54.8" fill="#0f766e"/><text class="value" x="371" y="405.2" text-anchor="middle">86</text><text class="label" x="371" y="495" text-anchor="end" transform="rotate(-35 371 495)">10–100 тыс.</text><rect x="460" y="396.7" width="82" height="73.3" fill="#0f766e"/><text class="value" x="501" y="386.7" text-anchor="middle">115</text><text class="label" x="501" y="495" text-anchor="end" transform="rotate(-35 501 495)">100 тыс.–1 млн</text><rect x="590" y="294.1" width="82" height="175.9" fill="#0f766e"/><text class="value" x="631" y="284.1" text-anchor="middle">276</text><text class="label" x="631" y="495" text-anchor="end" transform="rotate(-35 631 495)">1–10 млн</text><rect x="720" y="416.5" width="82" height="53.5" fill="#0f766e"/><text class="value" x="761" y="406.5" text-anchor="middle">84</text><text class="label" x="761" y="495" text-anchor="end" transform="rotate(-35 761 495)">10–100 млн</text><rect x="850" y="465.5" width="82" height="4.5" fill="#0f766e"/><text class="value" x="891" y="455.5" text-anchor="middle">7</text><text class="label" x="891" y="495" text-anchor="end" transform="rotate(-35 891 495)">100 млн+</text></svg>