<svg xmlns="http://www.w3.org/2000/svg" width="1020" height="590" viewBox="0 0 1020 590"><rect width="100%" height="100%" fill="#ffffff"/><style>text{font-family:Arial,DejaVu Sans,sans-serif;fill:#18212b}.title{font-size:24px;font-weight:700}.subtitle{font-size:14px;fill:#59636e}.axis{stroke:#9aa4af;stroke-width:1}.grid{stroke:#e6e9ed;stroke-width:1}.label{font-size:12px}.small{font-size:11px}</style><text class="title" x="40" y="40">Распределение закупок по указанной сумме</text><text class="subtitle" x="40" y="64">Диапазоны суммы по карточкам процедур</text><rect x="75" y="292.8" width="82" height="177.2" fill="#0f766e"/><text class="small" x="116" y="282.8" text-anchor="middle">278</text><text class="label" x="116" y="500" text-anchor="end" transform="rotate(-35 116 500)">нет суммы</text><rect x="205" y="80.0" width="82" height="390.0" fill="#0f766e"/><text class="small" x="246" y="70.0" text-anchor="middle">612</text><text class="label" x="246" y="500" text-anchor="end" transform="rotate(-35 246 500)">до 10 тыс.</text><rect x="335" y="415.2" width="82" height="54.8" fill="#0f766e"/><text class="small" x="376" y="405.2" text-anchor="middle">86</text><text class="label" x="376" y="500" text-anchor="end" transform="rotate(-35 376 500)">10–100 тыс.</text><rect x="465" y="396.7" width="82" height="73.3" fill="#0f766e"/><text class="small" x="506" y="386.7" text-anchor="middle">115</text><text class="label" x="506" y="500" text-anchor="end" transform="rotate(-35 506 500)">100 тыс.–1 млн</text><rect x="595" y="294.1" width="82" height="175.9" fill="#0f766e"/><text class="small" x="636" y="284.1" text-anchor="middle">276</text><text class="label" x="636" y="500" text-anchor="end" transform="rotate(-35 636 500)">1–10 млн</text><rect x="725" y="416.5" width="82" height="53.5" fill="#0f766e"/><text class="small" x="766" y="406.5" text-anchor="middle">84</text><text class="label" x="766" y="500" text-anchor="end" transform="rotate(-35 766 500)">10–100 млн</text><rect x="855" y="465.5" width="82" height="4.5" fill="#0f766e"/><text class="small" x="896" y="455.5" text-anchor="middle">7</text><text class="label" x="896" y="500" text-anchor="end" transform="rotate(-35 896 500)">100 млн+</text></svg>