<svg xmlns="http://www.w3.org/2000/svg" width="1150" height="500" viewBox="0 0 1150 500"><rect width="100%" height="100%" fill="white"/><text x="70" y="30" font-size="22">Структура направлений: 2024 и 2025</text><text x="850" y="30" fill="#2563eb">2024</text><text x="930" y="30" fill="#16a34a">2025</text><rect x="80" y="333.7" width="55" height="96.3" fill="#2563eb"/><rect x="140" y="80.0" width="55" height="350.0" fill="#16a34a"/><text x="135" y="455" font-size="12" text-anchor="middle">other</text><rect x="250" y="400.5" width="55" height="29.5" fill="#2563eb"/><rect x="310" y="357.9" width="55" height="72.1" fill="#16a34a"/><text x="305" y="455" font-size="12" text-anchor="middle">it_and_telecom</text><rect x="420" y="423.7" width="55" height="6.3" fill="#2563eb"/><rect x="480" y="372.4" width="55" height="57.6" fill="#16a34a"/><text x="475" y="455" font-size="12" text-anchor="middle">logistics_and_facilities</text><rect x="590" y="414.5" width="55" height="15.5" fill="#2563eb"/><rect x="650" y="389.3" width="55" height="40.7" fill="#16a34a"/><text x="645" y="455" font-size="12" text-anchor="middle">construction_and_repair</text><rect x="760" y="422.3" width="55" height="7.7" fill="#2563eb"/><rect x="820" y="406.3" width="55" height="23.7" fill="#16a34a"/><text x="815" y="455" font-size="12" text-anchor="middle">professional_services</text><rect x="930" y="428.1" width="55" height="1.9" fill="#2563eb"/><rect x="990" y="427.1" width="55" height="2.9" fill="#16a34a"/><text x="985" y="455" font-size="12" text-anchor="middle">audit_and_assurance</text></svg>