<svg xmlns="http://www.w3.org/2000/svg" width="760" height="500" viewBox="0 0 760 500"><rect width="100%" height="100%" fill="white"/><text x="70" y="30" font-size="22">IT-закупки и USD/RUB</text><text x="280" y="480" font-size="14">Средний USD/RUB</text><text x="15" y="260" font-size="14" transform="rotate(-90 15 260)">log(1 + сумма IT)</text><circle cx="328.5" cy="133.9" r="6" fill="#dc2626" opacity="0.75"/><circle cx="399.9" cy="137.2" r="6" fill="#dc2626" opacity="0.75"/><circle cx="405.2" cy="132.9" r="6" fill="#dc2626" opacity="0.75"/><circle cx="436.1" cy="149.6" r="6" fill="#dc2626" opacity="0.75"/><circle cx="377.0" cy="171.6" r="6" fill="#dc2626" opacity="0.75"/><circle cx="305.3" cy="131.8" r="6" fill="#dc2626" opacity="0.75"/><circle cx="298.6" cy="117.7" r="6" fill="#dc2626" opacity="0.75"/><circle cx="340.6" cy="118.0" r="6" fill="#dc2626" opacity="0.75"/><circle cx="392.7" cy="132.3" r="6" fill="#dc2626" opacity="0.75"/><circle cx="516.6" cy="430.0" r="6" fill="#dc2626" opacity="0.75"/><circle cx="630.5" cy="147.9" r="6" fill="#dc2626" opacity="0.75"/><circle cx="670.0" cy="149.8" r="6" fill="#dc2626" opacity="0.75"/><circle cx="623.5" cy="136.6" r="6" fill="#dc2626" opacity="0.75"/><circle cx="430.7" cy="121.7" r="6" fill="#dc2626" opacity="0.75"/><circle cx="261.7" cy="122.8" r="6" fill="#dc2626" opacity="0.75"/><circle cx="196.3" cy="117.7" r="6" fill="#dc2626" opacity="0.75"/><circle cx="115.3" cy="430.0" r="6" fill="#dc2626" opacity="0.75"/><circle cx="76.7" cy="148.7" r="6" fill="#dc2626" opacity="0.75"/><circle cx="79.3" cy="113.8" r="6" fill="#dc2626" opacity="0.75"/><circle cx="113.4" cy="94.0" r="6" fill="#dc2626" opacity="0.75"/><circle cx="184.9" cy="90.0" r="6" fill="#dc2626" opacity="0.75"/><circle cx="133.4" cy="100.1" r="6" fill="#dc2626" opacity="0.75"/><circle cx="118.8" cy="132.3" r="6" fill="#dc2626" opacity="0.75"/><circle cx="70.0" cy="138.4" r="6" fill="#dc2626" opacity="0.75"/></svg>