<svg xmlns="http://www.w3.org/2000/svg" width="1200" height="520" viewBox="0 0 1200 520"><rect width="100%" height="100%" fill="white"/><text x="70" y="30" font-size="22">Динамика закупок по месяцам</text><text x="900" y="30" fill="#2563eb">Все закупки</text><text x="1040" y="30" fill="#16a34a">IT и телеком</text><polyline points="70.0,426.9 116.1,403.8 162.2,405.9 208.3,399.6 254.3,403.8 300.4,414.3 346.5,410.1 392.6,391.2 438.7,387.0 484.8,370.2 530.9,347.1 577.0,357.6 623.0,387.0 669.1,321.9 715.2,290.4 761.3,330.3 807.4,393.3 853.5,319.8 899.6,273.6 945.7,206.5 991.7,227.5 1037.8,93.1 1083.9,70.0 1130.0,107.8" fill="none" stroke="#2563eb" stroke-width="3"/><polyline points="70.0,425.5 116.1,425.5 162.2,401.0 208.3,376.5 254.3,413.2 300.4,413.2 346.5,339.7 392.6,364.2 438.7,376.5 484.8,388.7 530.9,339.7 577.0,388.7 623.0,425.5 669.1,364.2 715.2,266.1 761.3,413.2 807.4,425.5 853.5,364.2 899.6,339.7 945.7,241.6 991.7,315.2 1037.8,70.0 1083.9,131.3 1130.0,217.1" fill="none" stroke="#16a34a" stroke-width="3"/><text x="70.0" y="485" font-size="12" text-anchor="end" transform="rotate(-55 70.0 485)">2024-01</text><text x="116.1" y="485" font-size="12" text-anchor="end" transform="rotate(-55 116.1 485)">2024-02</text><text x="162.2" y="485" font-size="12" text-anchor="end" transform="rotate(-55 162.2 485)">2024-03</text><text x="208.3" y="485" font-size="12" text-anchor="end" transform="rotate(-55 208.3 485)">2024-04</text><text x="254.3" y="485" font-size="12" text-anchor="end" transform="rotate(-55 254.3 485)">2024-05</text><text x="300.4" y="485" font-size="12" text-anchor="end" transform="rotate(-55 300.4 485)">2024-06</text><text x="346.5" y="485" font-size="12" text-anchor="end" transform="rotate(-55 346.5 485)">2024-07</text><text x="392.6" y="485" font-size="12" text-anchor="end" transform="rotate(-55 392.6 485)">2024-08</text><text x="438.7" y="485" font-size="12" text-anchor="end" transform="rotate(-55 438.7 485)">2024-09</text><text x="484.8" y="485" font-size="12" text-anchor="end" transform="rotate(-55 484.8 485)">2024-10</text><text x="530.9" y="485" font-size="12" text-anchor="end" transform="rotate(-55 530.9 485)">2024-11</text><text x="577.0" y="485" font-size="12" text-anchor="end" transform="rotate(-55 577.0 485)">2024-12</text><text x="623.0" y="485" font-size="12" text-anchor="end" transform="rotate(-55 623.0 485)">2025-01</text><text x="669.1" y="485" font-size="12" text-anchor="end" transform="rotate(-55 669.1 485)">2025-02</text><text x="715.2" y="485" font-size="12" text-anchor="end" transform="rotate(-55 715.2 485)">2025-03</text><text x="761.3" y="485" font-size="12" text-anchor="end" transform="rotate(-55 761.3 485)">2025-04</text><text x="807.4" y="485" font-size="12" text-anchor="end" transform="rotate(-55 807.4 485)">2025-05</text><text x="853.5" y="485" font-size="12" text-anchor="end" transform="rotate(-55 853.5 485)">2025-06</text><text x="899.6" y="485" font-size="12" text-anchor="end" transform="rotate(-55 899.6 485)">2025-07</text><text x="945.7" y="485" font-size="12" text-anchor="end" transform="rotate(-55 945.7 485)">2025-08</text><text x="991.7" y="485" font-size="12" text-anchor="end" transform="rotate(-55 991.7 485)">2025-09</text><text x="1037.8" y="485" font-size="12" text-anchor="end" transform="rotate(-55 1037.8 485)">2025-10</text><text x="1083.9" y="485" font-size="12" text-anchor="end" transform="rotate(-55 1083.9 485)">2025-11</text><text x="1130.0" y="485" font-size="12" text-anchor="end" transform="rotate(-55 1130.0 485)">2025-12</text></svg>