<svg xmlns="http://www.w3.org/2000/svg" width="1050" height="650" viewBox="0 0 1050 650"><rect width="100%" height="100%" fill="white"/><text x="10" y="28" font-size="22">Топ-20 закупок по указанной сумме, млн руб.</text><text x="10" y="69" font-size="12">SBR028-2502050031.1</text><rect x="210" y="55" width="650.0" height="18" fill="#7c3aed"/><text x="870.0" y="69" font-size="12">296.1</text><text x="10" y="97" font-size="12">SBR028-2501210072.1</text><rect x="210" y="83" width="516.6" height="18" fill="#7c3aed"/><text x="736.6" y="97" font-size="12">235.3</text><text x="10" y="125" font-size="12">SBR028-2509160031.1</text><rect x="210" y="111" width="408.4" height="18" fill="#7c3aed"/><text x="628.4" y="125" font-size="12">186.0</text><text x="10" y="153" font-size="12">SBR028-2410010034.1</text><rect x="210" y="139" width="352.3" height="18" fill="#7c3aed"/><text x="572.3" y="153" font-size="12">160.5</text><text x="10" y="181" font-size="12">SBR028-2508210056.1</text><rect x="210" y="167" width="340.5" height="18" fill="#7c3aed"/><text x="560.5" y="181" font-size="12">155.1</text><text x="10" y="209" font-size="12">SBR028-2504250009.1</text><rect x="210" y="195" width="268.7" height="18" fill="#7c3aed"/><text x="488.7" y="209" font-size="12">122.4</text><text x="10" y="237" font-size="12">SBR028-2411020013.1</text><rect x="210" y="223" width="221.7" height="18" fill="#7c3aed"/><text x="441.7" y="237" font-size="12">101.0</text><text x="10" y="265" font-size="12">SBR028-2510140031.1</text><rect x="210" y="251" width="219.5" height="18" fill="#7c3aed"/><text x="439.5" y="265" font-size="12">100.0</text><text x="10" y="293" font-size="12">8012904</text><rect x="210" y="279" width="142.7" height="18" fill="#7c3aed"/><text x="362.7" y="293" font-size="12">65.0</text><text x="10" y="321" font-size="12">SBR028-2510100053.1</text><rect x="210" y="307" width="124.1" height="18" fill="#7c3aed"/><text x="344.1" y="321" font-size="12">56.5</text><text x="10" y="349" font-size="12">SBR028-2408190016.1</text><rect x="210" y="335" width="109.8" height="18" fill="#7c3aed"/><text x="329.8" y="349" font-size="12">50.0</text><text x="10" y="377" font-size="12">SBR028-2512080027.1</text><rect x="210" y="363" width="99.3" height="18" fill="#7c3aed"/><text x="319.3" y="377" font-size="12">45.2</text><text x="10" y="405" font-size="12">SBR028-2504180037.1</text><rect x="210" y="391" width="95.3" height="18" fill="#7c3aed"/><text x="315.3" y="405" font-size="12">43.4</text><text x="10" y="433" font-size="12">SBR028-2512010036.1</text><rect x="210" y="419" width="83.6" height="18" fill="#7c3aed"/><text x="303.6" y="433" font-size="12">38.1</text><text x="10" y="461" font-size="12">SBR028-2503270015.1</text><rect x="210" y="447" width="68.1" height="18" fill="#7c3aed"/><text x="288.1" y="461" font-size="12">31.0</text><text x="10" y="489" font-size="12">SBR028-2503070023.1</text><rect x="210" y="475" width="68.1" height="18" fill="#7c3aed"/><text x="288.1" y="489" font-size="12">31.0</text><text x="10" y="517" font-size="12">SBR028-2408230031.1</text><rect x="210" y="503" width="65.9" height="18" fill="#7c3aed"/><text x="285.9" y="517" font-size="12">30.0</text><text x="10" y="545" font-size="12">SBR028-2405020024.1</text><rect x="210" y="531" width="65.9" height="18" fill="#7c3aed"/><text x="285.9" y="545" font-size="12">30.0</text><text x="10" y="573" font-size="12">SBR028-2410090024.1</text><rect x="210" y="559" width="65.8" height="18" fill="#7c3aed"/><text x="285.8" y="573" font-size="12">30.0</text><text x="10" y="601" font-size="12">SBR028-2409300079.1</text><rect x="210" y="587" width="65.8" height="18" fill="#7c3aed"/><text x="285.8" y="601" font-size="12">30.0</text></svg>